<svg width="164" height="33" viewBox="0 0 164 33" fill="none" xmlns="http://www.w3.org/2000/svg">
<path d="M19.1504 6.05859V7.66016C19.1504 9.32031 19.1504 11.1367 18.7012 13.6172H21.0449V15.6289H14.1113V22.8164H11.6113V15.6289H4.83398V13.6172H16.1816C16.6309 11.3223 16.6699 9.58398 16.6699 8.05078H6.68945V6.05859H19.1504ZM28.4379 7.44531C28.4184 9.82812 29.6488 12.0156 32.5004 12.8945L31.1918 14.8477C29.2777 14.1836 27.9789 12.9531 27.2465 11.3516C26.4457 13.207 25.0102 14.6719 22.8715 15.3945L21.5629 13.4023C24.6098 12.4258 25.8988 10.043 25.9184 7.5625V5.94141H28.4379V7.44531ZM36.6996 5.02344V15.4336H34.2191V10.3164H30.8793V8.28516H34.2191V5.02344H36.6996ZM30.6254 15.9023C34.4145 15.9023 36.7387 17.1719 36.7582 19.3594C36.7387 21.5469 34.4145 22.7969 30.6254 22.7969C26.8363 22.7969 24.5121 21.5469 24.5121 19.3594C24.5121 17.1719 26.8363 15.9023 30.6254 15.9023ZM30.6254 17.8359C28.2621 17.8359 26.9926 18.3438 26.9926 19.3594C26.9926 20.3359 28.2621 20.8633 30.6254 20.8633C32.9887 20.8633 34.2777 20.3359 34.2777 19.3594C34.2777 18.3438 32.9887 17.8359 30.6254 17.8359ZM54.8152 13.3438V15.3164H47.9402V16.8398H52.8816V22.6016H40.4793V16.8398H45.4598V15.3164H38.6043V13.3438H54.8152ZM53.3699 5.51172V7.50391H51.0457V10.2188H53.2527V12.2109H40.1473V10.2188H42.3348V7.50391H40.0301V5.51172H53.3699ZM42.9402 18.7734V20.6094H50.4402V18.7734H42.9402ZM44.8348 10.2188H48.5457V7.50391H44.8348V10.2188ZM73.9176 5.04297V10.1211H76.1832V12.1719H73.9176V17.1133H71.4176V5.04297H73.9176ZM59.5035 14.8281C60.8023 14.8281 62.2867 14.8281 63.8199 14.7891V13.793C61.8863 13.5195 60.6754 12.582 60.6949 11.2148C60.6754 9.57422 62.4137 8.55859 65.0504 8.55859C67.6676 8.55859 69.3863 9.57422 69.4059 11.2148C69.3863 12.582 68.2047 13.5098 66.3004 13.7734V14.6914C67.7652 14.6328 69.2203 14.5156 70.5973 14.3398L70.773 16.0586C67.023 16.7227 62.902 16.7617 59.7574 16.7617L59.5035 14.8281ZM73.9176 17.8359V22.7969H71.4176V19.75H61.7691V17.8359H73.9176ZM70.148 6.33203V8.14844H59.9723V6.33203H63.8199V4.88672H66.3004V6.33203H70.148ZM65.0504 10.2188C63.7809 10.2188 63.0582 10.5312 63.0777 11.2148C63.0582 11.8594 63.7809 12.2305 65.0504 12.2305C66.3004 12.2305 67.0035 11.8594 67.023 11.2148C67.0035 10.5312 66.3004 10.2188 65.0504 10.2188ZM91.4668 5.04297V17.8164H88.9668V5.04297H91.4668ZM91.9355 20.4922V22.4844H79.5527V16.5273H82.0723V20.4922H91.9355ZM81.7207 6.17578C84.4551 6.17578 86.584 8.05078 86.584 10.6484C86.584 13.3047 84.4551 15.1602 81.7207 15.1602C78.9863 15.1602 76.8574 13.3047 76.8574 10.6484C76.8574 8.05078 78.9863 6.17578 81.7207 6.17578ZM81.7207 8.34375C80.334 8.32422 79.2793 9.20312 79.2988 10.6484C79.2793 12.1328 80.334 12.9922 81.7207 12.9922C83.0684 12.9922 84.123 12.1328 84.123 10.6484C84.123 9.20312 83.0684 8.32422 81.7207 8.34375ZM107.493 5.02344V11.9766H110.11V14.0273H107.493V22.7969H105.032V5.02344H107.493ZM103.821 7.67969V9.67188H93.3715V7.67969H97.3949V5.29688H99.8949V7.67969H103.821ZM98.6449 10.668C101.243 10.668 103.176 12.4258 103.176 14.9062C103.176 17.3867 101.243 19.1445 98.6449 19.1445C96.0277 19.1445 94.0941 17.3867 94.0941 14.9062C94.0941 12.4258 96.0277 10.668 98.6449 10.668ZM98.6449 12.6797C97.3949 12.6992 96.477 13.5391 96.477 14.9062C96.477 16.293 97.3949 17.1133 98.6449 17.0938C99.8949 17.1133 100.793 16.293 100.793 14.9062C100.793 13.5391 99.8949 12.6992 98.6449 12.6797ZM125.296 5.02344V22.7969H122.776V5.02344H125.296ZM119.964 6.87891C119.964 12.2695 118.069 16.7422 111.721 19.75L110.413 17.7578C115.003 15.5898 117.024 12.7773 117.425 8.83203H111.37V6.87891H119.964Z" fill="#965A23"/>
<path d="M1 31.8701L163.5 31.8701L147.63 16.0004" stroke="#965A23" stroke-linecap="round" stroke-linejoin="round"/>
</svg>
